<?xml version="1.0" standalone="no"?>
<!DOCTYPE svg PUBLIC "-//W3C//DTD SVG 20010904//EN"
 "http://www.w3.org/TR/2001/REC-SVG-20010904/DTD/svg10.dtd">
<svg version="1.0" xmlns="http://www.w3.org/2000/svg"
 width="400.000000pt" height="400.000000pt" viewBox="0 0 400.000000 400.000000"
 preserveAspectRatio="xMidYMid meet">

<g transform="translate(0.000000,400.000000) scale(0.100000,-0.100000)"
fill="#000000" stroke="none">
<path d="M1244 3956 c-111 -54 -189 -112 -286 -214 -90 -94 -146 -174 -199
-285 -104 -218 -107 -381 -18 -907 16 -94 65 -220 116 -297 42 -64 46 -77 69
-213 62 -362 88 -481 131 -590 38 -95 74 -147 226 -325 75 -88 137 -162 137
-165 0 -3 -17 -13 -38 -23 -67 -32 -173 -118 -307 -249 l-131 -127 -149 -46
c-186 -58 -412 -141 -573 -211 -68 -30 -130 -54 -139 -54 -8 0 -30 -7 -49 -16
l-34 -16 0 -109 0 -109 631 0 631 0 -6 23 c-3 12 -27 101 -52 198 l-46 177 81
95 c45 53 103 112 129 131 90 66 115 99 120 160 l4 56 26 -20 c13 -11 46 -26
72 -34 50 -15 126 -83 205 -182 133 -167 180 -187 266 -110 26 24 91 74 144
111 96 69 148 118 167 161 8 16 27 29 62 39 28 9 57 19 64 21 8 4 12 -8 12
-42 0 -51 -11 -38 166 -204 33 -30 83 -83 113 -118 l53 -63 -46 -177 c-25 -97
-49 -187 -52 -200 l-6 -22 631 0 632 0 -3 112 -3 113 -45 14 c-25 8 -108 40
-185 72 -189 78 -381 148 -561 204 l-149 46 -115 113 c-139 135 -204 191 -290
244 l-64 41 115 118 c159 162 193 216 297 474 59 146 82 257 82 401 0 154 15
234 57 294 46 68 78 159 109 312 85 411 -31 997 -242 1230 -73 81 -165 128
-284 144 -70 9 -90 16 -115 40 l-31 28 -620 0 -620 0 -90 -44z m1452 -456 c60
-82 141 -147 230 -183 71 -30 79 -35 86 -67 5 -19 21 -73 36 -120 l27 -85 0
-417 c0 -229 -3 -419 -6 -422 -3 -4 -28 -8 -54 -10 l-49 -4 -38 -99 c-22 -54
-57 -149 -78 -212 -46 -134 -78 -185 -190 -307 -78 -83 -150 -181 -150 -202 0
-5 -6 -15 -14 -21 -11 -9 -16 -5 -26 19 -32 76 -187 193 -300 227 -45 13 -65
14 -113 5 -42 -8 -74 -8 -112 0 -70 14 -107 6 -204 -43 -83 -41 -176 -117
-200 -163 -8 -14 -17 -26 -20 -26 -4 0 -15 17 -26 38 -11 20 -75 92 -142 158
-122 122 -161 178 -193 279 -7 22 -34 87 -60 145 -26 58 -53 129 -60 158 l-12
52 -41 0 c-75 0 -71 -24 -71 402 -1 426 7 502 64 626 35 75 65 93 137 82 106
-16 414 40 748 136 121 35 236 68 255 73 l35 10 -34 -29 c-18 -15 -58 -42 -90
-59 l-56 -30 35 0 c19 0 65 10 103 23 l67 23 -16 -25 c-8 -13 -14 -26 -11 -28
8 -8 114 29 182 65 38 20 74 38 79 40 5 2 -3 -17 -18 -43 -15 -25 -23 -46 -19
-46 19 0 114 63 178 118 69 59 70 59 85 39 8 -12 33 -46 56 -77z m-672 -2039
c25 -27 78 -48 196 -75 101 -23 220 -62 220 -72 0 -10 -133 -160 -161 -183
l-30 -24 -37 35 c-20 20 -68 52 -107 72 -56 29 -80 36 -126 36 -52 0 -66 -5
-145 -54 -58 -36 -92 -64 -104 -85 l-16 -32 -32 51 c-17 28 -46 58 -63 68 -54
30 -59 36 -66 74 -5 37 -5 38 43 59 27 12 108 36 179 54 133 32 181 51 204 79
17 21 24 20 45 -3z"/>
<path d="M1250 2628 c-33 -9 -135 -71 -146 -89 -3 -5 18 3 46 17 64 32 165 41
235 21 28 -8 89 -26 136 -40 109 -32 223 -49 255 -37 52 20 15 58 -77 79 -261
61 -367 73 -449 49z"/>
<path d="M2414 2606 c-158 -35 -214 -57 -214 -82 0 -40 118 -35 274 12 217 65
267 68 373 20 l58 -26 -35 29 c-106 90 -215 101 -456 47z"/>
<path d="M1280 2449 c-40 -11 -80 -51 -80 -80 0 -60 69 -135 149 -164 53 -18
176 -18 246 0 l50 14 -50 -6 -49 -6 28 34 c25 29 28 39 24 85 -4 44 -2 51 11
46 35 -12 102 -64 115 -90 l15 -27 1 28 c0 42 -80 118 -156 147 -67 26 -243
37 -304 19z m111 -65 c-14 -18 -21 -41 -21 -71 0 -38 6 -51 33 -78 l34 -34
-31 6 c-105 19 -204 129 -153 171 18 15 76 30 120 31 l38 1 -20 -26z m184 -5
c11 -17 -1 -21 -15 -4 -8 9 -8 15 -2 15 6 0 14 -5 17 -11z"/>
<path d="M2450 2444 c-101 -27 -201 -112 -199 -169 0 -20 0 -20 12 -1 19 32
59 67 99 87 21 10 39 19 41 19 2 0 2 -25 -1 -55 -4 -52 -3 -56 31 -90 21 -21
29 -34 19 -31 -9 2 -37 7 -62 10 l-45 5 50 -14 c28 -7 88 -13 135 -14 91 -1
151 18 198 62 31 28 62 89 62 120 0 31 -35 62 -85 76 -56 15 -189 13 -255 -5z
m232 -45 c25 -6 54 -19 63 -29 16 -18 16 -21 -7 -62 -24 -43 -76 -80 -138 -98
l-31 -9 30 35 c37 41 43 109 14 141 -10 10 -14 13 -10 6 19 -28 0 -35 -20 -7
l-21 29 37 3 c20 1 57 -2 83 -9z"/>
</g>
</svg>
